<svg width="34" height="33" viewBox="0 0 34 33" fill="none" xmlns="http://www.w3.org/2000/svg">
<path d="M20.0184 4.54502L19.5211 4.59627V4.59627L20.0184 4.54502ZM20.0495 4.84633L20.5469 4.79509V4.79509L20.0495 4.84633ZM23.2827 6.20758L23.5937 6.59913V6.59913L23.2827 6.20758ZM23.6381 5.92539L23.3271 5.53384L23.3271 5.53384L23.6381 5.92539ZM24.9975 5.16341L25.0224 4.66403V4.66403L24.9975 5.16341ZM26.2748 6.05644L25.9265 6.41523L25.9358 6.42423L25.9455 6.43273L26.2748 6.05644ZM26.2748 6.05645L26.623 5.69766L26.6137 5.68867L26.604 5.68016L26.2748 6.05645ZM27.683 7.42322L27.3347 7.78201V7.78201L27.683 7.42322ZM28.6542 8.74017L28.1548 8.76514V8.76514L28.6542 8.74017ZM27.8192 10.1474L28.2015 10.4697L28.2015 10.4697L27.8192 10.1474ZM27.7197 10.2654L27.3374 9.94313L27.3374 9.94314L27.7197 10.2654ZM29.0557 13.5451L29.0074 14.0428V14.0428L29.0557 13.5451ZM29.36 13.5746L29.4083 13.077V13.077L29.36 13.5746ZM29.36 19.4254L29.4083 19.923V19.923L29.36 19.4254ZM29.0562 19.4549L29.0079 18.9572V18.9572L29.0562 19.4549ZM27.7203 22.7346L27.338 23.0568L27.338 23.0568L27.7203 22.7346ZM27.8192 22.852L28.2015 22.5297L28.2015 22.5297L27.8192 22.852ZM28.6543 24.2592L28.1549 24.2343V24.2343L28.6543 24.2592ZM27.683 25.5762L27.3348 25.2174V25.2174L27.683 25.5762ZM26.2748 26.9429L26.6231 27.3017V27.3017L26.2748 26.9429ZM23.6381 27.074L23.9491 26.6824V26.6824L23.6381 27.074ZM23.2828 26.7918L23.5937 26.4003V26.4003L23.2828 26.7918ZM20.0495 28.1531L20.5469 28.2043V28.2043L20.0495 28.1531ZM20.0184 28.455L19.5211 28.4037V28.4037L20.0184 28.455ZM14.3992 29.9925L14.0643 30.3637H14.0643L14.3992 29.9925ZM13.9819 28.455L13.4845 28.5062V28.5062L13.9819 28.455ZM13.9508 28.1536L13.4535 28.2048V28.2048L13.9508 28.1536ZM13.157 25.5186L13.3511 25.0578H13.3511L13.157 25.5186ZM10.7176 26.7924L10.4067 26.4008V26.4008L10.7176 26.7924ZM10.3622 27.0746L10.6731 27.4662V27.4662L10.3622 27.0746ZM7.72544 26.9436L8.07368 26.5848H8.07368L7.72544 26.9436ZM6.31726 25.5768L6.6655 25.218L6.66549 25.218L6.31726 25.5768ZM5.346 24.2598L5.84538 24.2349V24.2349L5.346 24.2598ZM6.18104 22.8526L6.56333 23.1748V23.1748L6.18104 22.8526ZM6.2805 22.7346L5.89821 22.4123V22.4123L6.2805 22.7346ZM7.66932 20.2569L7.20626 20.4455L7.20626 20.4455L7.66932 20.2569ZM4.94455 19.4549L4.89624 19.9526H4.89624L4.94455 19.4549ZM4.64029 19.4254L4.68859 18.9277H4.68859L4.64029 19.4254ZM4.64029 13.5746L4.68859 14.0723H4.68859L4.64029 13.5746ZM4.94508 13.5451L4.89677 13.0474H4.89677L4.94508 13.5451ZM6.28103 10.2654L6.66333 9.94309V9.94309L6.28103 10.2654ZM6.1811 10.1468L5.79881 10.4691V10.4691L6.1811 10.1468ZM5.34606 8.73955L5.84544 8.76452V8.76451L5.34606 8.73955ZM6.31732 7.4226L6.66556 7.78139V7.78139L6.31732 7.4226ZM7.72551 6.05583L8.07374 6.41462L8.07374 6.41462L7.72551 6.05583ZM9.00273 5.16279L9.02755 5.66217V5.66217L9.00273 5.16279ZM10.3622 5.92477L10.6732 5.53321V5.53321L10.3622 5.92477ZM10.7177 6.20703L10.4067 6.59859V6.59859L10.7177 6.20703ZM13.1571 7.48079L12.9631 7.01996V7.01996L13.1571 7.48079ZM13.9509 4.8458L14.4483 4.89704L14.4509 4.87149V4.8458H13.9509ZM13.9509 4.84579L13.4535 4.79455L13.4509 4.8201V4.84579H13.9509ZM13.9819 4.54502L13.4845 4.49378V4.49378L13.9819 4.54502ZM14.3992 3.00754L14.0643 2.63631L14.0643 2.63631L14.3992 3.00754ZM20.5158 4.49378C20.4732 4.08041 20.4373 3.72266 20.3706 3.43856C20.3006 3.14058 20.1835 2.85954 19.9361 2.63631L19.2662 3.37877C19.3042 3.41309 19.3518 3.47414 19.3971 3.66719C19.4457 3.87412 19.4757 4.15635 19.5211 4.59627L20.5158 4.49378ZM20.5469 4.79509L20.5158 4.49378L19.5211 4.59627L19.5521 4.89758L20.5469 4.79509ZM21.0373 7.0205C20.9857 6.99877 20.8858 6.93863 20.7881 6.55536C20.6899 6.17025 20.6312 5.61367 20.5469 4.79509L19.5521 4.89758C19.633 5.68241 19.6982 6.32839 19.8191 6.80246C19.9404 7.27837 20.1549 7.73401 20.6493 7.94215L21.0373 7.0205ZM22.9718 5.81602C22.3273 6.32778 21.8882 6.67478 21.5442 6.87368C21.2017 7.07163 21.0889 7.04224 21.0373 7.0205L20.6493 7.94215C21.1436 8.15029 21.6194 7.98523 22.0446 7.73944C22.4682 7.4946 22.9758 7.08979 23.5937 6.59913L22.9718 5.81602ZM23.3271 5.53384L22.9718 5.81602L23.5937 6.59913L23.949 6.31695L23.3271 5.53384ZM25.0224 4.66403C24.6964 4.64783 24.4198 4.7592 24.1633 4.91458C23.919 5.06263 23.6445 5.28177 23.3271 5.53384L23.949 6.31695C24.287 6.04855 24.5041 5.87735 24.6815 5.76985C24.8468 5.66968 24.9223 5.66029 24.9727 5.6628L25.0224 4.66403ZM26.623 5.69765C26.3322 5.41536 26.0808 5.17008 25.8523 4.99853C25.6125 4.81848 25.3483 4.68023 25.0224 4.66403L24.9727 5.6628C25.0232 5.6653 25.0973 5.68213 25.2519 5.7982C25.4178 5.92276 25.6168 6.11465 25.9265 6.41523L26.623 5.69765ZM26.604 5.68016L26.604 5.68015L25.9455 6.43273L25.9455 6.43274L26.604 5.68016ZM28.0312 7.06443L26.623 5.69766L25.9265 6.41524L27.3347 7.78201L28.0312 7.06443ZM29.1536 8.7152C29.1365 8.37388 28.9859 8.10031 28.7909 7.85442C28.6048 7.6198 28.3386 7.36283 28.0312 7.06443L27.3347 7.78201C27.6617 8.09935 27.8713 8.30418 28.0073 8.47576C28.1345 8.63608 28.1522 8.71311 28.1548 8.76514L29.1536 8.7152ZM28.2015 10.4697C28.4776 10.1421 28.7168 9.85987 28.8786 9.60786C29.048 9.34375 29.1707 9.05651 29.1536 8.7152L28.1548 8.76514C28.1574 8.81717 28.1474 8.89559 28.0369 9.06779C27.9187 9.25209 27.7306 9.4768 27.4369 9.82517L28.2015 10.4697ZM28.102 10.5877L28.2015 10.4697L27.4369 9.82517L27.3374 9.94313L28.102 10.5877ZM26.794 12.5544C26.7733 12.5036 26.7437 12.388 26.9609 12.0368C27.1778 11.6861 27.5521 11.24 28.102 10.5877L27.3374 9.94314C26.8095 10.5695 26.3754 11.0823 26.1104 11.5108C25.8456 11.939 25.6606 12.4228 25.8679 12.9317L26.794 12.5544ZM29.104 13.0474C28.2548 12.965 27.6753 12.9074 27.275 12.8081C26.8743 12.7087 26.8147 12.6053 26.794 12.5544L25.8679 12.9317C26.0751 13.4405 26.5456 13.6574 27.0342 13.7787C27.5232 13.9 28.1921 13.9636 29.0074 14.0428L29.104 13.0474ZM29.4083 13.077L29.104 13.0474L29.0074 14.0428L29.3117 14.0723L29.4083 13.077ZM31.2775 13.6495C31.0526 13.4016 30.7696 13.2854 30.4699 13.2167C30.1841 13.1513 29.8243 13.1173 29.4083 13.077L29.3117 14.0723C29.7543 14.1153 30.0384 14.1438 30.2467 14.1915C30.4411 14.236 30.5025 14.2835 30.5371 14.3216L31.2775 13.6495ZM31.6668 15.5653C31.6668 15.1474 31.6678 14.786 31.6303 14.4952C31.5909 14.1902 31.5025 13.8974 31.2775 13.6495L30.5371 14.3216C30.5716 14.3597 30.613 14.4254 30.6385 14.6232C30.6659 14.8352 30.6668 15.1206 30.6668 15.5653H31.6668ZM31.6668 17.4347V15.5653H30.6668V17.4347H31.6668ZM31.2775 19.3505C31.5025 19.1026 31.5909 18.8098 31.6303 18.5048C31.6678 18.214 31.6668 17.8526 31.6668 17.4347H30.6668C30.6668 17.8794 30.6659 18.1648 30.6385 18.3768C30.613 18.5746 30.5716 18.6403 30.5371 18.6784L31.2775 19.3505ZM29.4083 19.923C29.8243 19.8827 30.1841 19.8487 30.4699 19.7833C30.7696 19.7146 31.0526 19.5984 31.2775 19.3505L30.5371 18.6784C30.5025 18.7165 30.4411 18.764 30.2467 18.8085C30.0384 18.8562 29.7543 18.8847 29.3117 18.9277L29.4083 19.923ZM29.1045 19.9525L29.4083 19.923L29.3117 18.9277L29.0079 18.9572L29.1045 19.9525ZM26.7945 20.4455C26.8152 20.3947 26.8749 20.2913 27.2756 20.1918C27.6758 20.0925 28.2553 20.0349 29.1045 19.9525L29.0079 18.9572C28.1926 19.0363 27.5238 19.0999 27.0347 19.2213C26.5462 19.3425 26.0757 19.5594 25.8684 20.0683L26.7945 20.4455ZM28.1026 22.4123C27.5527 21.76 27.1783 21.3138 26.9614 20.9631C26.7442 20.612 26.7738 20.4964 26.7945 20.4455L25.8684 20.0683C25.6611 20.5771 25.8462 21.061 26.1109 21.4891C26.376 21.9177 26.81 22.4305 27.338 23.0568L28.1026 22.4123ZM28.2015 22.5297L28.1026 22.4123L27.338 23.0568L27.437 23.1742L28.2015 22.5297ZM29.1537 24.2842C29.1707 23.9429 29.0481 23.6556 28.8786 23.3915C28.7169 23.1395 28.4777 22.8573 28.2015 22.5297L27.4369 23.1742C27.7306 23.5226 27.9187 23.7473 28.037 23.9316C28.1475 24.1038 28.1575 24.1822 28.1549 24.2343L29.1537 24.2842ZM28.0313 25.935C28.3387 25.6366 28.6049 25.3796 28.7909 25.145C28.9859 24.8991 29.1366 24.6255 29.1537 24.2842L28.1549 24.2343C28.1523 24.2863 28.1345 24.3633 28.0074 24.5236C27.8713 24.6952 27.6617 24.9 27.3348 25.2174L28.0313 25.935ZM26.6231 27.3017L28.0313 25.935L27.3348 25.2174L25.9266 26.5841L26.6231 27.3017ZM25.0224 28.3354C25.3484 28.3192 25.6126 28.1809 25.8524 28.0009C26.0809 27.8293 26.3322 27.584 26.6231 27.3017L25.9266 26.5841C25.6169 26.8847 25.4178 27.0766 25.2519 27.2012C25.0974 27.3173 25.0232 27.3341 24.9728 27.3366L25.0224 28.3354ZM23.3272 27.4656C23.6446 27.7176 23.919 27.9368 24.1634 28.0848C24.4199 28.2402 24.6965 28.3516 25.0224 28.3354L24.9728 27.3366C24.9223 27.3391 24.8469 27.3297 24.6816 27.2295C24.5041 27.122 24.287 26.9508 23.9491 26.6824L23.3272 27.4656ZM22.9718 27.1834L23.3272 27.4656L23.9491 26.6824L23.5937 26.4003L22.9718 27.1834ZM21.0374 25.9789C21.089 25.9572 21.2018 25.9278 21.5442 26.1257C21.8883 26.3246 22.3274 26.6716 22.9718 27.1834L23.5937 26.4003C22.9759 25.9096 22.4682 25.5048 22.0447 25.2599C21.6195 25.0142 21.1437 24.8491 20.6493 25.0572L21.0374 25.9789ZM20.5469 28.2043C20.6313 27.3857 20.6899 26.8291 20.7881 26.444C20.8859 26.0608 20.9857 26.0006 21.0374 25.9789L20.6493 25.0572C20.155 25.2654 19.9405 25.721 19.8192 26.1969C19.6983 26.671 19.633 27.317 19.5522 28.1018L20.5469 28.2043ZM20.5158 28.5062L20.5469 28.2043L19.5522 28.1018L19.5211 28.4037L20.5158 28.5062ZM19.9361 30.3637C20.1835 30.1405 20.3006 29.8594 20.3706 29.5614C20.4373 29.2773 20.4732 28.9196 20.5158 28.5062L19.5211 28.4037C19.4757 28.8437 19.4457 29.1259 19.3971 29.3328C19.3518 29.5259 19.3042 29.5869 19.2662 29.6212L19.9361 30.3637ZM18.029 30.75C18.4445 30.75 18.8041 30.751 19.0935 30.7137C19.3971 30.6746 19.6887 30.5869 19.9361 30.3637L19.2662 29.6212C19.2281 29.6555 19.1625 29.6966 18.9659 29.7219C18.755 29.749 18.4712 29.75 18.029 29.75V30.75ZM15.9714 30.75H18.029V29.75H15.9714V30.75ZM14.0643 30.3637C14.3117 30.5869 14.6032 30.6746 14.9068 30.7137C15.1963 30.751 15.5558 30.75 15.9714 30.75V29.75C15.5291 29.75 15.2453 29.749 15.0345 29.7219C14.8378 29.6966 14.7722 29.6555 14.7341 29.6212L14.0643 30.3637ZM13.4845 28.5062C13.5271 28.9196 13.563 29.2773 13.6297 29.5614C13.6997 29.8594 13.8169 30.1405 14.0643 30.3637L14.7341 29.6212C14.6961 29.5869 14.6486 29.5259 14.6032 29.3328C14.5546 29.1259 14.5246 28.8437 14.4793 28.4037L13.4845 28.5062ZM13.4535 28.2048L13.4845 28.5062L14.4793 28.4037L14.4482 28.1024L13.4535 28.2048ZM12.963 25.9794C13.0147 26.0012 13.1145 26.0613 13.2122 26.4446C13.3104 26.8297 13.3691 27.3863 13.4535 28.2048L14.4482 28.1024C14.3673 27.3175 14.3021 26.6715 14.1812 26.1975C14.0599 25.7216 13.8454 25.2659 13.3511 25.0578L12.963 25.9794ZM11.0285 27.1839C11.673 26.6722 12.1121 26.3251 12.4562 26.1263C12.7986 25.9283 12.9114 25.9577 12.963 25.9794L13.3511 25.0578C12.8567 24.8496 12.3809 25.0147 11.9557 25.2605C11.5321 25.5053 11.0245 25.9101 10.4067 26.4008L11.0285 27.1839ZM10.6731 27.4662L11.0285 27.1839L10.4067 26.4008L10.0512 26.6831L10.6731 27.4662ZM8.97785 28.336C9.3038 28.3522 9.58042 28.2408 9.83688 28.0854C10.0812 27.9374 10.3557 27.7182 10.6731 27.4662L10.0512 26.6831C9.71324 26.9515 9.49613 27.1227 9.3187 27.2302C9.15337 27.3303 9.07794 27.3397 9.02749 27.3372L8.97785 28.336ZM7.37721 27.3024C7.66806 27.5847 7.91941 27.8299 8.14789 28.0015C8.38768 28.1815 8.65189 28.3198 8.97785 28.336L9.02749 27.3372C8.97705 27.3347 8.90292 27.3179 8.74833 27.2018C8.58244 27.0772 8.38338 26.8854 8.07368 26.5848L7.37721 27.3024ZM5.96902 25.9356L7.37721 27.3024L8.07368 26.5848L6.6655 25.218L5.96902 25.9356ZM4.84662 24.2848C4.86369 24.6261 5.01435 24.8997 5.20934 25.1456C5.39539 25.3802 5.66158 25.6372 5.96902 25.9356L6.66549 25.218C6.33854 24.9007 6.12894 24.6958 5.99288 24.5243C5.86575 24.3639 5.84798 24.2869 5.84538 24.2349L4.84662 24.2848ZM5.79875 22.5303C5.52261 22.8579 5.28338 23.1401 5.12166 23.3922C4.95218 23.6563 4.82956 23.9435 4.84662 24.2848L5.84538 24.2349C5.84277 24.1828 5.85277 24.1044 5.96327 23.9322C6.08154 23.7479 6.26966 23.5232 6.56333 23.1748L5.79875 22.5303ZM5.89821 22.4123L5.79875 22.5303L6.56333 23.1748L6.66279 23.0569L5.89821 22.4123ZM7.20626 20.4455C7.22697 20.4964 7.25653 20.612 7.03936 20.9632C6.82247 21.3139 6.4481 21.76 5.89821 22.4123L6.66279 23.0569C7.19077 22.4305 7.62481 21.9177 7.88985 21.4891C8.15462 21.061 8.33965 20.5772 8.13237 20.0683L7.20626 20.4455ZM4.89624 19.9526C5.74543 20.035 6.32499 20.0926 6.72519 20.1919C7.1259 20.2913 7.18555 20.3947 7.20626 20.4455L8.13237 20.0683C7.9251 19.5595 7.45462 19.3426 6.96607 19.2213C6.47702 19.1 5.80819 19.0364 4.99285 18.9572L4.89624 19.9526ZM4.59198 19.923L4.89624 19.9526L4.99285 18.9572L4.68859 18.9277L4.59198 19.923ZM2.72278 19.3505C2.94777 19.5984 3.23071 19.7146 3.53044 19.7833C3.81624 19.8487 4.17607 19.8827 4.59198 19.923L4.68859 18.9277C4.24601 18.8847 3.96197 18.8562 3.75364 18.8085C3.55924 18.764 3.4978 18.7165 3.46326 18.6784L2.72278 19.3505ZM2.3335 17.4347C2.3335 17.8526 2.33252 18.214 2.37005 18.5048C2.4094 18.8098 2.4978 19.1026 2.72278 19.3505L3.46326 18.6784C3.42872 18.6403 3.38735 18.5746 3.36182 18.3768C3.33447 18.1648 3.3335 17.8794 3.3335 17.4347H2.3335ZM2.3335 15.5653V17.4347H3.3335V15.5653H2.3335ZM2.72278 13.6495C2.4978 13.8974 2.4094 14.1902 2.37005 14.4952C2.33252 14.786 2.3335 15.1474 2.3335 15.5653H3.3335C3.3335 15.1206 3.33447 14.8352 3.36182 14.6232C3.38735 14.4254 3.42872 14.3596 3.46326 14.3216L2.72278 13.6495ZM4.59198 13.077C4.17607 13.1173 3.81624 13.1513 3.53044 13.2167C3.23071 13.2854 2.94777 13.4016 2.72278 13.6495L3.46326 14.3216C3.4978 14.2835 3.55924 14.236 3.75364 14.1915C3.96197 14.1438 4.24601 14.1153 4.68859 14.0723L4.59198 13.077ZM4.89677 13.0474L4.59198 13.077L4.68859 14.0723L4.99338 14.0427L4.89677 13.0474ZM7.20679 12.5544C7.18608 12.6052 7.12643 12.7086 6.72572 12.8081C6.32552 12.9074 5.74596 12.965 4.89677 13.0474L4.99338 14.0427C5.80872 13.9636 6.47755 13.9 6.9666 13.7786C7.45515 13.6574 7.92563 13.4405 8.13291 12.9316L7.20679 12.5544ZM5.89874 10.5876C6.44863 11.2399 6.823 11.6861 7.03989 12.0368C7.25706 12.3879 7.2275 12.5036 7.20679 12.5544L8.13291 12.9316C8.34018 12.4228 8.15515 11.9389 7.89038 11.5108C7.62534 11.0822 7.1913 10.5694 6.66333 9.94309L5.89874 10.5876ZM5.79881 10.4691L5.89874 10.5876L6.66333 9.94309L6.5634 9.82455L5.79881 10.4691ZM4.84669 8.71458C4.82962 9.05589 4.95224 9.34313 5.12172 9.60724C5.28344 9.85925 5.52267 10.1415 5.79881 10.4691L6.5634 9.82455C6.26973 9.47618 6.08161 9.25146 5.96334 9.06716C5.85284 8.89496 5.84284 8.81654 5.84544 8.76452L4.84669 8.71458ZM5.96908 7.06381C5.66164 7.3622 5.39545 7.61918 5.2094 7.8538C5.01441 8.09969 4.86375 8.37326 4.84669 8.71458L5.84544 8.76451C5.84804 8.71249 5.86581 8.63545 5.99294 8.47514C6.129 8.30356 6.3386 8.09873 6.66556 7.78139L5.96908 7.06381ZM7.37727 5.69704L5.96908 7.06381L6.66556 7.78139L8.07374 6.41462L7.37727 5.69704ZM8.97791 4.66341C8.65195 4.67961 8.38775 4.81786 8.14796 4.99791C7.91948 5.16946 7.66812 5.41474 7.37727 5.69704L8.07374 6.41462C8.38344 6.11403 8.5825 5.92214 8.7484 5.79758C8.90298 5.68151 8.97711 5.66468 9.02755 5.66217L8.97791 4.66341ZM10.6732 5.53321C10.3557 5.28115 10.0813 5.06201 9.83694 4.91396C9.58048 4.75857 9.30387 4.6472 8.97791 4.66341L9.02755 5.66217C9.078 5.65967 9.15343 5.66906 9.31876 5.76923C9.4962 5.87673 9.7133 6.04793 10.0513 6.31632L10.6732 5.53321ZM11.0286 5.81548L10.6732 5.53321L10.0513 6.31632L10.4067 6.59859L11.0286 5.81548ZM12.9631 7.01996C12.9115 7.0417 12.7987 7.07108 12.4562 6.87314C12.1122 6.67424 11.673 6.32724 11.0286 5.81548L10.4067 6.59859C11.0246 7.08925 11.5322 7.49406 11.9558 7.7389C12.381 7.98469 12.8568 8.14975 13.3511 7.94161L12.9631 7.01996ZM13.4535 4.79455C13.3692 5.61314 13.3105 6.16972 13.2123 6.55482C13.1146 6.93809 13.0147 6.99823 12.9631 7.01996L13.3511 7.94161C13.8455 7.73347 14.0599 7.27783 14.1813 6.80192C14.3022 6.32785 14.3674 5.68187 14.4483 4.89704L13.4535 4.79455ZM13.4509 4.84579V4.8458H14.4509V4.84579H13.4509ZM13.4845 4.49378L13.4535 4.79455L14.4483 4.89703L14.4793 4.59627L13.4845 4.49378ZM14.0643 2.63631C13.8169 2.85954 13.6997 3.14058 13.6297 3.43856C13.563 3.72266 13.5271 4.08041 13.4845 4.49378L14.4793 4.59627C14.5246 4.15635 14.5546 3.87413 14.6032 3.66719C14.6486 3.47414 14.6961 3.41309 14.7341 3.37877L14.0643 2.63631ZM15.9714 2.25C15.5558 2.25 15.1963 2.24903 14.9068 2.28628C14.6032 2.32536 14.3117 2.41309 14.0643 2.63631L14.7341 3.37877C14.7722 3.34445 14.8378 3.30342 15.0345 3.2781C15.2453 3.25097 15.5291 3.25 15.9714 3.25V2.25ZM18.029 2.25H15.9714V3.25H18.029V2.25ZM19.9361 2.63631C19.6887 2.41309 19.3971 2.32536 19.0935 2.28628C18.8041 2.24903 18.4445 2.25 18.029 2.25V3.25C18.4712 3.25 18.755 3.25097 18.9659 3.2781C19.1625 3.30342 19.2281 3.34445 19.2662 3.37877L19.9361 2.63631ZM22.1668 16.5C22.1668 19.2475 19.8678 21.5 17.0002 21.5V22.5C20.3917 22.5 23.1668 19.8277 23.1668 16.5H22.1668ZM17.0002 11.5C19.8678 11.5 22.1668 13.7525 22.1668 16.5H23.1668C23.1668 13.1723 20.3917 10.5 17.0002 10.5V11.5ZM11.8335 16.5C11.8335 13.7525 14.1325 11.5 17.0002 11.5V10.5C13.6086 10.5 10.8335 13.1723 10.8335 16.5H11.8335ZM17.0002 21.5C14.1325 21.5 11.8335 19.2475 11.8335 16.5H10.8335C10.8335 19.8277 13.6086 22.5 17.0002 22.5V21.5Z" fill="#808080" fill-opacity="0.55"/>
</svg>
