<svg width="29" height="29" viewBox="0 0 29 29" fill="none" xmlns="http://www.w3.org/2000/svg">
<path fill-rule="evenodd" clip-rule="evenodd" d="M3.625 11.625C3.625 7.85376 3.625 5.96815 4.79657 4.79657C5.96815 3.625 7.85376 3.625 11.625 3.625H17.375C21.1462 3.625 23.0319 3.625 24.2034 4.79657C25.375 5.96815 25.375 7.85376 25.375 11.625V17.375C25.375 21.1462 25.375 23.0319 24.2034 24.2034C23.0319 25.375 21.1462 25.375 17.375 25.375H11.625C7.85376 25.375 5.96815 25.375 4.79657 24.2034C3.625 23.0319 3.625 21.1462 3.625 17.375V11.625ZM21.75 9.0625C21.75 10.0635 20.9385 10.875 19.9375 10.875C18.9365 10.875 18.125 10.0635 18.125 9.0625C18.125 8.06148 18.9365 7.25 19.9375 7.25C20.9385 7.25 21.75 8.06148 21.75 9.0625ZM17.3333 15.7083C17.3333 17.2731 16.0648 18.5417 14.5 18.5417C12.9352 18.5417 11.6667 17.2731 11.6667 15.7083C11.6667 14.1435 12.9352 12.875 14.5 12.875C16.0648 12.875 17.3333 14.1435 17.3333 15.7083ZM19.3333 15.7083C19.3333 18.3777 17.1694 20.5417 14.5 20.5417C11.8306 20.5417 9.66667 18.3777 9.66667 15.7083C9.66667 13.039 11.8306 10.875 14.5 10.875C17.1694 10.875 19.3333 13.039 19.3333 15.7083Z" fill="white"/>
</svg>
